<?xml version="1.0" encoding="utf-8"?>
<!-- Generator: Adobe Illustrator 27.5.0, SVG Export Plug-In . SVG Version: 6.00 Build 0)  -->
<svg xmlns:xlink="http://www.w3.org/1999/xlink" version="1.1" xmlns="http://www.w3.org/2000/svg" x="0px" y="0px"
     viewBox="0 0 500 500" style="enable-background:new 0 0 500 500;" xml:space="preserve">
<g id="BACKGROUND">
	<rect x="0.433" y="0.194" style="fill:#1E1D44;" width="499.611" height="499.611"/>
</g>
    <g id="OBJECTS">
	<g>
		<g>
			<path style="fill:#91B1FA;" d="M359.514,123.461c0,1.257-1.019,2.277-2.277,2.277c-1.257,0-2.277-1.019-2.277-2.277
				c0-1.257,1.019-2.277,2.277-2.277C358.495,121.185,359.514,122.204,359.514,123.461z"/>
            <path style="fill:#91B1FA;" d="M383.405,295.262c0,1.257-1.019,2.277-2.277,2.277c-1.257,0-2.277-1.019-2.277-2.277
				c0-1.257,1.019-2.277,2.277-2.277C382.385,292.985,383.405,294.004,383.405,295.262z"/>
            <path style="fill:#FFFFFF;" d="M414.553,231.819c0,1.257-1.019,2.277-2.277,2.277c-1.257,0-2.277-1.019-2.277-2.277
				c0-1.257,1.019-2.277,2.277-2.277C413.534,229.542,414.553,230.562,414.553,231.819z"/>
            <circle style="fill:#91B1FA;" cx="81.634" cy="300.759" r="2.277"/>
            <path style="fill:#FFFFFF;" d="M321.406,69.642c0,1.257-1.019,2.277-2.277,2.277c-1.257,0-2.277-1.019-2.277-2.277
				s1.019-2.277,2.277-2.277C320.386,67.365,321.406,68.384,321.406,69.642z"/>
            <path style="fill:#FFFFFF;" d="M62.835,178.797c0,1.477-1.198,2.675-2.675,2.675c-1.477,0-2.675-1.198-2.675-2.675
				c0-1.477,1.197-2.675,2.675-2.675C61.637,176.122,62.835,177.32,62.835,178.797z"/>
            <path style="fill:#91B1FA;" d="M341.603,205.6l-1.98-1.062c-0.124-0.066-0.225-0.168-0.291-0.291l-1.062-1.98
				c-0.269-0.501-0.987-0.501-1.255,0l-1.061,1.98c-0.066,0.123-0.168,0.225-0.291,0.291l-1.98,1.062
				c-0.501,0.269-0.501,0.987,0,1.255l1.98,1.062c0.124,0.066,0.225,0.167,0.291,0.291l1.061,1.98c0.269,0.501,0.987,0.501,1.255,0
				l1.062-1.98c0.066-0.123,0.168-0.225,0.291-0.291l1.98-1.062C342.104,206.587,342.104,205.869,341.603,205.6z"/>
            <path style="fill:#91B1FA;" d="M162.662,174.415l-1.748-0.937c-0.109-0.059-0.198-0.148-0.257-0.257l-0.937-1.748
				c-0.237-0.442-0.871-0.442-1.108,0l-0.937,1.748c-0.059,0.109-0.148,0.198-0.257,0.257l-1.748,0.937
				c-0.442,0.237-0.442,0.871,0,1.108l1.748,0.937c0.109,0.059,0.198,0.148,0.257,0.257l0.937,1.748
				c0.237,0.442,0.871,0.442,1.108,0l0.937-1.748c0.059-0.109,0.148-0.198,0.257-0.257l1.748-0.937
				C163.104,175.286,163.104,174.652,162.662,174.415z"/>
            <path style="fill:#91B1FA;" d="M108.182,92.382l-2.981-1.599c-0.186-0.1-0.339-0.252-0.438-0.438l-1.599-2.981
				c-0.404-0.754-1.486-0.754-1.89,0l-1.599,2.981c-0.1,0.186-0.252,0.339-0.438,0.438l-2.981,1.599
				c-0.754,0.404-0.754,1.486,0,1.89l2.981,1.599c0.186,0.1,0.339,0.252,0.438,0.438l1.599,2.981c0.405,0.754,1.486,0.754,1.89,0
				l1.599-2.981c0.1-0.186,0.252-0.339,0.438-0.438l2.981-1.599C108.937,93.868,108.937,92.786,108.182,92.382z"/>
            <path style="fill:#FFFFFF;" d="M207.591,60.78l-1.98-1.062c-0.124-0.066-0.225-0.168-0.291-0.291l-1.062-1.98
				c-0.269-0.501-0.987-0.501-1.255,0l-1.062,1.98c-0.066,0.124-0.167,0.225-0.291,0.291l-1.98,1.062
				c-0.501,0.269-0.501,0.987,0,1.255l1.98,1.062c0.124,0.066,0.225,0.167,0.291,0.291l1.062,1.98c0.269,0.501,0.987,0.501,1.255,0
				l1.062-1.98c0.066-0.124,0.168-0.225,0.291-0.291l1.98-1.062C208.092,61.766,208.092,61.048,207.591,60.78z"/>
            <path style="fill:#FFFFFF;" d="M424.734,148.77l-2.973-1.594c-0.186-0.1-0.337-0.252-0.437-0.437l-1.594-2.973
				c-0.403-0.752-1.482-0.752-1.885,0l-1.594,2.973c-0.1,0.186-0.252,0.338-0.437,0.437l-2.973,1.594
				c-0.752,0.403-0.752,1.482,0,1.885l2.973,1.594c0.186,0.1,0.338,0.252,0.437,0.437l1.594,2.973c0.403,0.752,1.482,0.752,1.885,0
				l1.594-2.973c0.1-0.185,0.252-0.338,0.437-0.437l2.973-1.594C425.486,150.252,425.486,149.174,424.734,148.77z"/>
            <path style="fill:#FFFFFF;" d="M122.303,244.394l-2.973-1.594c-0.186-0.1-0.338-0.252-0.437-0.437l-1.594-2.973
				c-0.403-0.752-1.482-0.752-1.885,0l-1.594,2.973c-0.1,0.186-0.252,0.338-0.437,0.437l-2.973,1.594
				c-0.752,0.403-0.752,1.482,0,1.885l2.973,1.594c0.186,0.1,0.338,0.251,0.437,0.437l1.594,2.973c0.403,0.752,1.482,0.752,1.885,0
				l1.594-2.973c0.1-0.186,0.252-0.337,0.437-0.437l2.973-1.594C123.055,245.875,123.055,244.797,122.303,244.394z"/>
		</g>
        <g>
			<linearGradient id="SVGID_1_" gradientUnits="userSpaceOnUse" x1="247.4001" y1="274.6948" x2="247.4001" y2="452.6787">
				<stop offset="0" style="stop-color:#FFFFFF"/>
                <stop offset="1" style="stop-color:#FFFFFF;stop-opacity:0"/>
			</linearGradient>
            <rect x="174.443" y="274.695" style="opacity:0.19;fill:url(#SVGID_1_);" width="145.915" height="177.984"/>

            <linearGradient id="SVGID_00000004536130793537815200000006768411427446413445_" gradientUnits="userSpaceOnUse" x1="247.721" y1="322.0058" x2="247.721" y2="444.4973">
				<stop offset="0" style="stop-color:#FFFFFF"/>
                <stop offset="1" style="stop-color:#FFFFFF;stop-opacity:0"/>
			</linearGradient>

            <rect x="233.773" y="322.006" style="opacity:0.93;fill:url(#SVGID_00000004536130793537815200000006768411427446413445_);" width="27.897" height="122.492"/>
            <g>
				<g>
					<path style="fill:#5C95F3;" d="M278.317,232.822l34.751,23.709c4.955,3.38,7.919,8.991,7.919,14.99v3.174h-42.671V232.822z"/>
                    <path style="fill:#5C95F3;" d="M217.113,232.822l-34.751,23.709c-4.955,3.38-7.919,8.991-7.919,14.99v3.174h42.671V232.822z"/>
                    <path style="opacity:0.42;fill:#C7C7C7;" d="M208.1,238.971l-6.854,4.676c0,0,1.6,17.811,7.874,31.047h7.994L208.1,238.971z"/>
                    <path style="opacity:0.42;fill:#C7C7C7;" d="M287.331,238.971l6.854,4.676c0,0-1.6,17.811-7.874,31.047h-7.994L287.331,238.971
						z"/>
                    <g>
						<g>
							<path style="fill:#344B7E;" d="M229.415,281.101c-1.739,0-3.029,1.615-2.644,3.311l3.052,20.91
								c0.28,1.235,1.378,2.112,2.644,2.112h14.759v-26.333H229.415z"/>
                            <path style="fill:#2A3F65;" d="M264.629,305.322l3.052-20.91c0.385-1.696-0.905-3.311-2.644-3.311h-17.811v26.333h14.759
								C263.251,307.434,264.349,306.557,264.629,305.322z"/>
						</g>
                        <polygon style="opacity:0.63;fill:#C7C7C7;" points="227.308,288.096 228.774,298.136 265.678,298.136 267.143,288.096
							"/>
                        <g>
							<path style="fill:#FFFFFF;" d="M217.113,136.737c-8.403,21.871-14.386,51.242-11.058,88.488c0,0,4.379,40.202,17.911,65.676
								h24.588V136.737H217.113z"/>
                            <path style="fill:#5C95F3;" d="M248.555,95.222c-4.843,0.145-9.639,2.42-12.784,6.752
								c-5.856,8.067-12.838,19.615-18.658,34.762h31.442V95.222z"/>
                            <path style="fill:#B2D0F9;" d="M280.248,136.737h-31.693v154.164h22.381c0,0,15.524-21.494,18.708-68.861
								C291.479,194.747,289.288,163.585,280.248,136.737z"/>
                            <path style="fill:#5085D1;" d="M280.248,136.737c-4.446-13.205-10.545-25.368-18.646-35.508
								c-3.334-4.174-8.214-6.151-13.047-6.006v41.515H280.248z"/>
						</g>

                        <ellipse transform="matrix(0.9215 -0.3884 0.3884 0.9215 -51.3521 110.8731)" style="fill:#344B7E;" cx="248.555" cy="182.45" rx="24.36" ry="24.36"/>

                        <ellipse transform="matrix(0.9221 -0.387 0.387 0.9221 -51.2393 110.4022)" style="fill:#F2D279;" cx="248.555" cy="182.45" rx="18.276" ry="18.276"/>
					</g>
                    <path style="fill:#5C95F3;" d="M247.68,299.502c-2.532,0-4.585-2.053-4.585-4.585v-36.883c0-2.532,2.053-4.585,4.585-4.585
						c2.532,0,4.585,2.053,4.585,4.585v36.883C252.266,297.449,250.213,299.502,247.68,299.502z"/>
                    <path style="opacity:0.42;fill:#FFFFFF;" d="M231.062,187.748c0,0,10.452,1.697,16.618-8.697
						c4.186-7.057,0.875-14.877,0.875-14.877s-10.989-0.415-16.522,10.46C232.033,174.634,228.75,180.194,231.062,187.748z"/>
				</g>
                <g>
					<path style="fill:#E9AD29;" d="M257.624,307.434h-9.909h-9.909c0,0-8.099,11.479-1.613,29.858c0,0,2.341,8.01,10.199,14.448
						c0.812,0.665,1.835,0.665,2.647,0c7.858-6.438,10.199-14.448,10.199-14.448C265.723,318.913,257.624,307.434,257.624,307.434z"
                    />
                    <path style="fill:#EED85C;" d="M240.316,307.434c0,0-6.491,13.532,0.245,27.149c0.674,1.362,2.006,1.775,3.047,0.958
						l2.15-1.686v7.275c0,2.679,2.29,4.167,3.776,2.43c4.819-5.633,11.838-17.714,5.712-36.126H240.316z"/>
                    <path style="fill:#F7EC9A;" d="M242.901,307.434c0,0-3.372,4.941-0.493,13.783c0,0,0.807,2.552,2.726,4.284
						c0.624,0.564,1.403-0.201,1.343-1.333c-0.143-2.71-0.053-6.952,1.72-8.413c1.667-1.373,3.314,0.515,4.323,2.143
						c0.508,0.819,1.378,0.398,1.519-0.727c0.318-2.531,0.304-6.455-1.925-9.738H242.901z"/>
				</g>
			</g>
		</g>
        <g>
			<defs>
				<rect id="SVGID_00000047028622993347589300000004596257742260701330_" x="0.433" y="0.01" width="499.611" height="499.795"/>
			</defs>
            <clipPath id="SVGID_00000122719611327904748040000008085462517633415097_">
				<use xlink:href="#SVGID_00000047028622993347589300000004596257742260701330_" style="overflow:visible;"/>
			</clipPath>
            <g style="clip-path:url(#SVGID_00000122719611327904748040000008085462517633415097_);">

					<ellipse transform="matrix(0.7071 -0.7071 0.7071 0.7071 -182.8851 403.5535)" style="fill:#FFFFFF;" cx="395.69" cy="422.539" rx="69.893" ry="69.893"/>

                <ellipse transform="matrix(0.7071 -0.7071 0.7071 0.7071 -249.5265 349.9889)" style="fill:#FFFFFF;" cx="297.711" cy="476.2" rx="55.354" ry="55.354"/>

                <ellipse transform="matrix(0.7071 -0.7071 0.7071 0.7071 -272.4449 269.6495)" style="fill:#FFFFFF;" cx="189.273" cy="463.695" rx="57.879" ry="57.879"/>

                <ellipse transform="matrix(0.7071 -0.7071 0.7071 0.7071 -278.0707 205.5155)" style="fill:#FFFFFF;" cx="109.044" cy="438.419" rx="38.997" ry="38.997"/>
                <circle style="fill:#ECF2FD;" cx="38.473" cy="443.225" r="75.867"/>
                <ellipse style="fill:#ECF2FD;" cx="470.589" cy="474.375" rx="110.159" ry="117.202"/>
                <circle style="fill:#ECF2FD;" cx="136.617" cy="510.394" r="59.136"/>

                <ellipse transform="matrix(0.1573 -0.9876 0.9876 0.1573 -211.0399 753.4959)" style="fill:#ECF2FD;" cx="335.98" cy="500.404" rx="59.137" ry="59.136"/>
                <circle style="fill:#ECF2FD;" cx="243.293" cy="518.855" r="81.973"/>
			</g>
		</g>
	</g>
</g>
    <g id="DESIGNED_BY_FREEPIK">
	<g>
		<g id="XMLID_319_">
			<g id="XMLID_338_">
				<path id="XMLID_346_" style="fill:#222221;" d="M260.104,465.465c-0.432,0.443-0.803,0.931-1.108,1.453l-0.465-0.241
					c-0.067-0.298-0.349-0.503-0.659-0.466c-0.331,0.039-0.568,0.339-0.529,0.67s0.339,0.568,0.67,0.529
					c0.065-0.008,0.127-0.026,0.184-0.052l0.451,0.234c-0.251,0.554-0.433,1.139-0.539,1.744l0.746,0.132
					c0.23-1.306,0.85-2.507,1.792-3.473L260.104,465.465z"/>
                <path id="XMLID_345_" style="fill:#222221;" d="M265.592,463.163c-0.171,0-0.341,0.006-0.51,0.017l-0.074-0.626
					c0.188-0.149,0.296-0.389,0.266-0.645c-0.046-0.393-0.402-0.674-0.795-0.628s-0.674,0.402-0.628,0.795
					c0.03,0.254,0.189,0.461,0.405,0.564l0.073,0.624c-0.714,0.116-1.403,0.332-2.06,0.646l0.327,0.684
					c0.934-0.447,1.942-0.673,2.995-0.673c0.496,0,0.993,0.053,1.475,0.158l0.161-0.741
					C266.693,463.222,266.142,463.163,265.592,463.163z"/>
                <path id="XMLID_344_" style="fill:#222221;" d="M272.194,465.711c0.331-0.04,0.566-0.341,0.525-0.672
					c-0.04-0.331-0.341-0.566-0.672-0.526c-0.309,0.038-0.535,0.304-0.53,0.609l-0.416,0.363c-0.418-0.43-0.89-0.813-1.408-1.139
					l-0.404,0.641c1.134,0.715,2.021,1.726,2.563,2.925l0.691-0.313c-0.251-0.554-0.568-1.072-0.942-1.545l0.402-0.351
					C272.065,465.716,272.129,465.719,272.194,465.711z"/>
                <path id="XMLID_343_" style="fill:#222221;" d="M265.044,473.372c-0.386,0.023-0.775,0.035-1.157,0.035
					c-0.88,0-1.733-0.061-2.478-0.179c-0.39-0.062-0.846-0.155-1.27-0.292c1.046,1.861,3.069,3.125,5.388,3.125
					c2.855,0,5.262-1.916,5.95-4.504c-0.682,0.449-1.505,0.825-2.459,1.123C267.839,473.047,266.464,473.286,265.044,473.372z"/>
                <path id="XMLID_339_" style="fill:#222221;" d="M265.592,464.68c-3.352,0-6.08,2.666-6.08,5.943
					c0,0.426,0.046,0.849,0.137,1.261c0.674,0.483,2.706,0.89,5.348,0.731c2.879-0.173,5.297-0.957,6.672-2.159
					c-0.005-0.195-0.021-0.39-0.045-0.582C271.244,466.913,268.65,464.68,265.592,464.68z M263.432,471.194
					c-1.02,0-1.85-0.83-1.85-1.85c0-1.02,0.83-1.85,1.85-1.85c1.02,0,1.85,0.83,1.85,1.85
					C265.282,470.365,264.452,471.194,263.432,471.194z M268.17,470.286c-0.75,0-1.36-0.61-1.36-1.36s0.61-1.361,1.36-1.361
					c0.75,0,1.361,0.61,1.361,1.361S268.92,470.286,268.17,470.286z"/>
			</g>
            <path id="XMLID_336_" style="fill:#222221;" d="M281.595,466.547c-0.295-0.116-0.806-0.309-1.382-0.237
				c-0.551,0.069-0.844,0.341-0.844,1.007v0.866h2.228v1.717h-2.228v5.455h-1.932v-5.455h-1.34v-1.717h1.34v-0.888
				c0-1.68,0.896-2.783,2.568-2.783c0.642,0,1.157,0.122,1.59,0.308L281.595,466.547z"/>
            <path id="XMLID_334_" style="fill:#222221;" d="M286.298,469.879c-0.177-0.03-0.358-0.046-0.526-0.046
				c-0.896,0-1.51,0.548-1.51,1.614v3.908h-1.932v-7.172h1.873v0.785c0.451-0.673,1.14-0.977,2.021-0.977
				c0.414,0,0.848,0.128,1.094,0.337L286.298,469.879z"/>
            <path id="XMLID_331_" style="fill:#222221;" d="M293.965,471.757c0,0.222-0.015,0.489-0.037,0.651h-5.085
				c0.207,1.036,0.933,1.488,1.843,1.488c0.622,0,1.295-0.252,1.813-0.688l1.132,1.243c-0.814,0.748-1.85,1.088-3.057,1.088
				c-2.198,0-3.723-1.495-3.723-3.753c0-2.258,1.48-3.797,3.627-3.797C292.544,467.99,293.958,469.522,293.965,471.757z
				 M288.851,471.091h3.175c-0.177-0.918-0.733-1.436-1.562-1.436C289.554,469.655,289.021,470.203,288.851,471.091z"/>
            <path id="XMLID_328_" style="fill:#222221;" d="M301.618,471.757c0,0.222-0.015,0.489-0.037,0.651h-5.085
				c0.207,1.036,0.932,1.488,1.843,1.488c0.622,0,1.295-0.252,1.813-0.688l1.132,1.243c-0.814,0.748-1.85,1.088-3.057,1.088
				c-2.198,0-3.723-1.495-3.723-3.753c0-2.258,1.48-3.797,3.627-3.797C300.197,467.99,301.611,469.522,301.618,471.757z
				 M296.504,471.091h3.175c-0.178-0.918-0.733-1.436-1.562-1.436C297.207,469.655,296.674,470.203,296.504,471.091z"/>
            <path id="XMLID_325_" style="fill:#222221;" d="M309.964,471.764c0,2.154-1.495,3.775-3.471,3.775
				c-0.962,0-1.643-0.378-2.109-0.933v3.708h-1.924v-10.133h1.887v0.792c0.466-0.585,1.155-0.984,2.139-0.984
				C308.469,467.99,309.964,469.61,309.964,471.764z M304.287,471.764c0,1.132,0.747,1.976,1.843,1.976
				c1.14,0,1.85-0.881,1.85-1.976c0-1.095-0.71-1.976-1.85-1.976C305.035,469.788,304.287,470.632,304.287,471.764z"/>
            <path id="XMLID_322_" style="fill:#222221;" d="M313.068,465.836c0,0.696-0.54,1.229-1.236,1.229
				c-0.696,0-1.229-0.533-1.229-1.229c0-0.696,0.533-1.243,1.229-1.243C312.527,464.592,313.068,465.14,313.068,465.836z
				 M312.809,475.354h-1.932v-7.172h1.932V475.354z"/>
            <path id="XMLID_320_" style="fill:#222221;" d="M316.032,470.736l2.702-2.554h2.368l-3.479,3.375l3.501,3.797h-2.376
				l-2.716-2.901v2.901H314.1v-10.658h1.932V470.736z"/>
		</g>
        <g>
			<path style="fill:#222221;" d="M184.412,475.289v-1.055c-0.527,0.718-1.391,1.23-2.388,1.23c-1.846,0-3.149-1.406-3.149-3.706
				c0-2.256,1.289-3.721,3.149-3.721c0.952,0,1.816,0.469,2.388,1.245v-3.765h1.099v9.77H184.412z M184.412,473.37v-3.208
				c-0.395-0.615-1.245-1.143-2.124-1.143c-1.421,0-2.27,1.172-2.27,2.739c0,1.567,0.85,2.724,2.27,2.724
				C183.168,474.483,184.017,473.986,184.412,473.37z"/>
            <path style="fill:#222221;" d="M186.932,471.744c0-2.051,1.465-3.706,3.486-3.706c2.139,0,3.398,1.67,3.398,3.794v0.279h-5.727
				c0.088,1.333,1.025,2.446,2.549,2.446c0.805,0,1.626-0.322,2.182-0.894l0.527,0.718c-0.703,0.703-1.655,1.084-2.812,1.084
				C188.44,475.465,186.932,473.956,186.932,471.744z M190.403,468.947c-1.509,0-2.256,1.274-2.314,2.358h4.643
				C192.718,470.25,192.015,468.947,190.403,468.947z"/>
            <path style="fill:#222221;" d="M194.607,474.351l0.571-0.791c0.469,0.542,1.362,1.011,2.329,1.011c1.084,0,1.67-0.513,1.67-1.216
				c0-1.714-4.38-0.659-4.38-3.281c0-1.098,0.952-2.036,2.636-2.036c1.201,0,2.051,0.454,2.622,1.026l-0.513,0.762
				c-0.424-0.513-1.201-0.894-2.109-0.894c-0.967,0-1.567,0.483-1.567,1.113c0,1.552,4.38,0.527,4.38,3.281
				c0,1.187-0.952,2.138-2.783,2.138C196.306,475.465,195.325,475.113,194.607,474.351z"/>
            <path style="fill:#222221;" d="M201.477,466.471c0-0.41,0.337-0.747,0.732-0.747c0.41,0,0.747,0.337,0.747,0.747
				c0,0.41-0.337,0.732-0.747,0.732C201.814,467.203,201.477,466.881,201.477,466.471z M201.667,475.289v-7.075h1.099v7.075H201.667
				z"/>
            <path style="fill:#222221;" d="M204.582,477.105l0.556-0.82c0.586,0.703,1.289,0.967,2.3,0.967c1.172,0,2.27-0.571,2.27-2.124
				v-1.011c-0.513,0.718-1.377,1.26-2.373,1.26c-1.845,0-3.149-1.377-3.149-3.662c0-2.27,1.289-3.677,3.149-3.677
				c0.952,0,1.802,0.469,2.373,1.245v-1.069h1.098v6.87c0,2.344-1.641,3.076-3.369,3.076
				C206.237,478.16,205.417,477.926,204.582,477.105z M209.709,473.253v-3.091c-0.381-0.615-1.23-1.143-2.109-1.143
				c-1.421,0-2.27,1.128-2.27,2.695c0,1.553,0.849,2.695,2.27,2.695C208.478,474.41,209.328,473.868,209.709,473.253z"/>
            <path style="fill:#222221;" d="M217.413,475.289v-4.629c0-1.245-0.63-1.641-1.582-1.641c-0.865,0-1.685,0.527-2.095,1.099v5.17
				h-1.099v-7.075h1.099v1.025c0.498-0.586,1.465-1.201,2.519-1.201c1.48,0,2.256,0.747,2.256,2.285v4.966H217.413z"/>
            <path style="fill:#222221;" d="M219.932,471.744c0-2.051,1.465-3.706,3.486-3.706c2.139,0,3.398,1.67,3.398,3.794v0.279h-5.727
				c0.088,1.333,1.025,2.446,2.549,2.446c0.806,0,1.626-0.322,2.183-0.894l0.527,0.718c-0.703,0.703-1.655,1.084-2.812,1.084
				C221.441,475.465,219.932,473.956,219.932,471.744z M223.404,468.947c-1.509,0-2.256,1.274-2.314,2.358h4.643
				C225.718,470.25,225.015,468.947,223.404,468.947z"/>
            <path style="fill:#222221;" d="M233.35,475.289v-1.055c-0.527,0.718-1.392,1.23-2.388,1.23c-1.846,0-3.149-1.406-3.149-3.706
				c0-2.256,1.289-3.721,3.149-3.721c0.952,0,1.817,0.469,2.388,1.245v-3.765h1.098v9.77H233.35z M233.35,473.37v-3.208
				c-0.396-0.615-1.245-1.143-2.124-1.143c-1.421,0-2.27,1.172-2.27,2.739c0,1.567,0.849,2.724,2.27,2.724
				C232.105,474.483,232.954,473.986,233.35,473.37z"/>
            <path style="fill:#222221;" d="M239.692,475.289v-9.77h1.098v3.765c0.572-0.776,1.421-1.245,2.388-1.245
				c1.845,0,3.149,1.465,3.149,3.721c0,2.299-1.304,3.706-3.149,3.706c-0.996,0-1.86-0.513-2.388-1.23v1.055H239.692z
				 M242.9,474.483c1.436,0,2.285-1.157,2.285-2.724c0-1.568-0.85-2.739-2.285-2.739c-0.864,0-1.728,0.527-2.109,1.143v3.208
				C241.171,473.986,242.036,474.483,242.9,474.483z"/>
            <path style="fill:#222221;" d="M247.528,477.061c0.161,0.073,0.425,0.117,0.601,0.117c0.483,0,0.805-0.161,1.055-0.747
				l0.469-1.069l-2.959-7.148h1.187l2.358,5.8l2.344-5.8h1.201l-3.545,8.51c-0.425,1.025-1.143,1.421-2.08,1.435
				c-0.234,0-0.601-0.044-0.805-0.103L247.528,477.061z"/>
		</g>
	</g>
</g>
</svg>
